<?xml version="1.0" encoding="UTF-8"?>
<svg xmlns="http://www.w3.org/2000/svg" xmlns:xlink="http://www.w3.org/1999/xlink" width="600px" height="370px" viewBox="0 0 599 370" version="1.1">
<g id="surface1">
<path style=" stroke:none;fill-rule:nonzero;fill:rgb(14.509804%,14.509804%,14.509804%);fill-opacity:1;" d="M 347.953125 128.472656 C 358.125 125.214844 369.296875 125.175781 379.472656 128.4375 C 383.390625 129.703125 387.402344 131.1875 390.453125 134.070312 C 394.675781 137.816406 396.910156 143.375 397.21875 148.949219 C 391.402344 148.945312 385.59375 148.953125 379.78125 148.945312 C 379.699219 145.640625 378.585938 142.277344 376.1875 139.929688 C 373.121094 136.75 368.488281 135.90625 364.253906 135.757812 C 359.101562 135.734375 353.488281 137.011719 349.875 140.957031 C 347.210938 143.679688 346.066406 147.433594 345.242188 151.058594 C 344.0625 156.316406 344.003906 161.8125 345.074219 167.089844 C 345.515625 169.128906 345.921875 171.214844 346.875 173.089844 C 348.589844 176.609375 351.765625 179.371094 355.460938 180.640625 C 361.03125 182.601562 367.355469 182.648438 372.839844 180.375 C 377.683594 178.242188 380.257812 172.808594 380.09375 167.6875 C 385.941406 167.683594 391.785156 167.683594 397.632812 167.6875 C 397.40625 173.3125 395.636719 179.089844 391.554688 183.125 C 388.601562 186.320312 384.46875 187.964844 380.410156 189.246094 C 370.828125 192.324219 360.410156 192.652344 350.644531 190.257812 C 343.949219 188.800781 337.507812 185.457031 333.148438 180.070312 C 329.136719 175.285156 327.570312 168.984375 327.015625 162.886719 C 326.484375 154.722656 327.597656 145.96875 332.535156 139.199219 C 336.234375 133.964844 341.832031 130.25 347.953125 128.472656 Z M 347.953125 128.472656 "/>
<path style=" stroke:none;fill-rule:nonzero;fill:rgb(14.509804%,14.509804%,14.509804%);fill-opacity:1;" d="M 175.363281 127.574219 C 180.902344 127.585938 186.445312 127.570312 191.984375 127.582031 C 191.980469 148.488281 191.976562 169.386719 191.988281 190.289062 C 186.445312 190.304688 180.902344 190.285156 175.363281 190.300781 C 175.351562 169.390625 175.347656 148.480469 175.363281 127.574219 Z M 175.363281 127.574219 "/>
<path style=" stroke:none;fill-rule:nonzero;fill:rgb(14.509804%,14.509804%,14.509804%);fill-opacity:1;" d="M 406.054688 127.582031 C 411.601562 127.578125 417.144531 127.574219 422.691406 127.582031 C 422.6875 135.945312 422.6875 144.300781 422.6875 152.664062 C 433.859375 152.664062 445.03125 152.667969 456.207031 152.660156 C 456.277344 144.296875 455.992188 135.941406 456.214844 127.578125 C 461.75 127.574219 467.289062 127.578125 472.828125 127.578125 C 472.824219 148.488281 472.835938 169.394531 472.820312 190.300781 C 467.28125 190.285156 461.742188 190.304688 456.195312 190.289062 C 456.207031 181.089844 456.210938 171.890625 456.191406 162.6875 C 445.027344 162.839844 433.859375 162.675781 422.695312 162.695312 C 422.683594 171.894531 422.683594 181.089844 422.691406 190.289062 C 417.152344 190.304688 411.609375 190.289062 406.070312 190.296875 C 406.058594 169.394531 406.261719 148.488281 406.054688 127.582031 Z M 406.054688 127.582031 "/>
<path style=" stroke:none;fill-rule:nonzero;fill:rgb(14.509804%,14.509804%,14.509804%);fill-opacity:1;" d="M 485.941406 127.570312 C 491.476562 127.589844 497.015625 127.570312 502.550781 127.582031 C 502.550781 148.488281 502.550781 169.390625 502.550781 190.296875 C 497.011719 190.296875 491.472656 190.292969 485.929688 190.296875 C 485.925781 169.390625 485.914062 148.480469 485.941406 127.570312 Z M 485.941406 127.570312 "/>
<path style=" stroke:none;fill-rule:nonzero;fill:rgb(14.509804%,14.509804%,14.509804%);fill-opacity:1;" d="M 95.558594 127.582031 C 101.101562 127.574219 106.640625 127.578125 112.1875 127.578125 C 112.1875 135.941406 112.1875 144.300781 112.1875 152.664062 C 123.332031 152.664062 134.484375 152.667969 145.632812 152.660156 C 145.628906 144.300781 145.632812 135.941406 145.632812 127.578125 C 151.175781 127.574219 156.714844 127.578125 162.257812 127.578125 C 162.324219 148.480469 162.320312 169.390625 162.269531 190.296875 C 156.726562 190.296875 151.183594 190.292969 145.632812 190.296875 C 145.621094 181.09375 145.648438 171.890625 145.625 162.6875 C 134.480469 162.84375 123.332031 162.667969 112.1875 162.699219 C 112.1875 171.894531 112.179688 181.089844 112.191406 190.285156 C 106.644531 190.308594 101.105469 190.285156 95.5625 190.296875 C 95.558594 169.394531 95.566406 148.488281 95.558594 127.582031 Z M 95.558594 127.582031 "/>
<path style=" stroke:none;fill-rule:nonzero;fill:rgb(14.509804%,14.509804%,14.509804%);fill-opacity:1;" d="M 197.914062 138.246094 C 197.925781 134.6875 197.910156 131.132812 197.925781 127.578125 C 220.355469 127.578125 242.792969 127.582031 265.230469 127.574219 C 265.25 131.132812 265.230469 134.691406 265.238281 138.25 C 256.789062 138.25 248.339844 138.246094 239.890625 138.25 C 239.878906 155.601562 239.886719 172.949219 239.882812 190.296875 C 234.347656 190.292969 228.808594 190.296875 223.273438 190.292969 C 223.269531 172.945312 223.277344 155.601562 223.269531 138.25 C 214.816406 138.246094 206.367188 138.253906 197.914062 138.246094 Z M 197.914062 138.246094 "/>
<path style=" stroke:none;fill-rule:nonzero;fill:rgb(14.509804%,14.509804%,14.509804%);fill-opacity:1;" d="M 250.808594 190.292969 C 260.554688 169.386719 270.324219 148.488281 280.078125 127.578125 C 286.878906 127.578125 293.675781 127.578125 300.476562 127.578125 C 310.242188 148.480469 320 169.386719 329.75 190.292969 C 323.578125 190.296875 317.40625 190.296875 311.234375 190.292969 C 309.429688 185.796875 307.609375 181.304688 305.800781 176.8125 C 295.453125 176.808594 285.101562 176.804688 274.75 176.8125 C 272.964844 181.308594 271.191406 185.808594 269.359375 190.289062 C 263.171875 190.304688 256.992188 190.289062 250.808594 190.292969 M 290.273438 138.304688 C 286.449219 147.777344 282.605469 157.242188 278.804688 166.714844 C 286.460938 166.71875 294.121094 166.71875 301.78125 166.714844 C 297.953125 157.246094 294.113281 147.777344 290.273438 138.304688 Z M 290.273438 138.304688 "/>
<path style=" stroke:none;fill-rule:nonzero;fill:rgb(14.509804%,14.509804%,14.509804%);fill-opacity:1;" d="M 309.734375 208.351562 C 313.886719 207.851562 318.046875 207.34375 322.203125 206.816406 C 322.269531 213.011719 322.222656 219.210938 322.222656 225.410156 C 324.042969 222.519531 326.957031 220.210938 330.382812 219.679688 C 333.097656 219.277344 336.203125 219.492188 338.363281 221.378906 C 340.21875 223.050781 340.816406 225.660156 340.867188 228.066406 C 340.878906 234.519531 340.871094 240.972656 340.875 247.421875 C 338.378906 247.417969 335.886719 247.417969 333.390625 247.421875 C 333.382812 241.398438 333.386719 235.375 333.386719 229.351562 C 333.371094 228.164062 333.289062 226.898438 332.613281 225.890625 C 331.523438 224.304688 329.234375 224.1875 327.570312 224.785156 C 324.3125 226.152344 322.335938 229.710938 322.238281 233.164062 C 322.222656 237.914062 322.238281 242.667969 322.234375 247.417969 C 319.738281 247.421875 317.246094 247.417969 314.753906 247.421875 C 314.746094 236.730469 314.761719 226.035156 314.746094 215.34375 C 314.667969 214 314.816406 212.378906 313.71875 211.390625 C 312.59375 210.507812 311.070312 210.605469 309.730469 210.503906 C 309.722656 209.785156 309.726562 209.0625 309.734375 208.351562 Z M 309.734375 208.351562 "/>
<path style=" stroke:none;fill-rule:nonzero;fill:rgb(14.509804%,14.509804%,14.509804%);fill-opacity:1;" d="M 65.929688 209.160156 C 71.0625 208.683594 76.203125 208.226562 81.339844 207.734375 C 81.34375 220.960938 81.335938 234.1875 81.34375 247.414062 C 78.335938 247.429688 75.328125 247.414062 72.324219 247.421875 C 72.320312 236.605469 72.324219 225.789062 72.324219 214.972656 C 72.324219 213.988281 72.199219 212.734375 71.160156 212.304688 C 69.496094 211.648438 67.671875 211.601562 65.917969 211.378906 C 65.917969 210.632812 65.917969 209.898438 65.929688 209.160156 Z M 65.929688 209.160156 "/>
<path style=" stroke:none;fill-rule:nonzero;fill:rgb(14.509804%,14.509804%,14.509804%);fill-opacity:1;" d="M 197.898438 208.394531 C 200.300781 207.367188 203.660156 208.472656 204.394531 211.136719 C 205.117188 213.65625 202.75 216.03125 200.324219 216.144531 C 198.035156 216.464844 195.460938 214.835938 195.285156 212.429688 C 195.042969 210.65625 196.304688 209.023438 197.898438 208.394531 Z M 197.898438 208.394531 "/>
<path style=" stroke:none;fill-rule:nonzero;fill:rgb(14.509804%,14.509804%,14.509804%);fill-opacity:1;" d="M 393.390625 208.398438 C 399.15625 208.398438 404.929688 208.398438 410.695312 208.398438 C 417.179688 218.242188 423.640625 228.097656 430.148438 237.917969 C 430.15625 228.082031 430.148438 218.242188 430.152344 208.398438 C 432.84375 208.398438 435.53125 208.394531 438.222656 208.402344 C 438.222656 221.40625 438.226562 234.414062 438.21875 247.421875 C 434.90625 247.414062 431.585938 247.429688 428.273438 247.414062 C 421.480469 237.105469 414.679688 226.808594 407.847656 216.523438 C 407.847656 226.820312 407.84375 237.113281 407.851562 247.410156 C 405.164062 247.433594 402.476562 247.410156 399.796875 247.421875 C 399.78125 236.753906 399.8125 226.082031 399.78125 215.414062 C 399.695312 214.1875 399.824219 212.597656 398.621094 211.855469 C 396.984375 211.089844 395.140625 211.019531 393.394531 210.675781 C 393.386719 209.914062 393.382812 209.15625 393.390625 208.398438 Z M 393.390625 208.398438 "/>
<path style=" stroke:none;fill-rule:nonzero;fill:rgb(14.509804%,14.509804%,14.509804%);fill-opacity:1;" d="M 290.5625 211.695312 C 293.054688 211.691406 295.550781 211.691406 298.042969 211.695312 C 298.039062 214.515625 298.039062 217.332031 298.042969 220.15625 C 300.847656 220.199219 303.660156 220.078125 306.46875 220.214844 C 306.429688 221.308594 306.425781 222.410156 306.433594 223.515625 C 303.636719 223.519531 300.835938 223.507812 298.039062 223.519531 C 298.050781 229.117188 298.011719 234.71875 298.058594 240.316406 C 298.09375 241.675781 298.183594 243.460938 299.667969 244.042969 C 301.605469 244.722656 303.730469 244.527344 305.710938 244.152344 C 305.710938 245.277344 305.710938 246.40625 305.710938 247.542969 C 302.699219 248.101562 299.601562 248.210938 296.566406 247.800781 C 294.945312 247.5625 293.277344 246.996094 292.164062 245.734375 C 290.972656 244.390625 290.589844 242.527344 290.566406 240.777344 C 290.5625 235.023438 290.566406 229.269531 290.566406 223.515625 C 288.894531 223.511719 287.222656 223.519531 285.550781 223.511719 C 285.542969 222.394531 285.542969 221.277344 285.546875 220.164062 C 287.214844 220.152344 288.890625 220.160156 290.5625 220.15625 C 290.566406 217.335938 290.566406 214.515625 290.5625 211.695312 Z M 290.5625 211.695312 "/>
<path style=" stroke:none;fill-rule:nonzero;fill:rgb(14.509804%,14.509804%,14.509804%);fill-opacity:1;" d="M 512.816406 211.699219 C 515.332031 211.6875 517.847656 211.691406 520.363281 211.695312 C 520.363281 214.515625 520.359375 217.335938 520.367188 220.15625 C 523.15625 220.164062 525.953125 220.148438 528.746094 220.164062 C 528.746094 221.277344 528.746094 222.394531 528.742188 223.515625 C 525.949219 223.515625 523.160156 223.515625 520.367188 223.511719 C 520.359375 229.25 520.355469 234.992188 520.367188 240.726562 C 520.367188 241.964844 520.621094 243.542969 521.945312 244.039062 C 523.871094 244.726562 525.992188 244.53125 527.972656 244.15625 C 527.964844 245.28125 527.964844 246.414062 527.964844 247.546875 C 524.335938 248.15625 520.511719 248.375 516.941406 247.339844 C 514.292969 246.578125 512.882812 243.796875 512.871094 241.179688 C 512.761719 235.296875 512.855469 229.40625 512.824219 223.519531 C 511.152344 223.511719 509.480469 223.519531 507.808594 223.511719 C 507.800781 222.394531 507.800781 221.277344 507.804688 220.164062 C 509.476562 220.152344 511.144531 220.160156 512.816406 220.160156 C 512.824219 217.335938 512.832031 214.519531 512.816406 211.699219 Z M 512.816406 211.699219 "/>
<path style=" stroke:none;fill-rule:nonzero;fill:rgb(14.509804%,14.509804%,14.509804%);fill-opacity:1;" d="M 89.117188 221.398438 C 93.332031 220.742188 97.542969 220.0625 101.761719 219.417969 C 101.773438 221.417969 101.765625 223.410156 101.761719 225.40625 C 103.65625 222.648438 106.453125 220.332031 109.8125 219.71875 C 112.457031 219.261719 115.433594 219.472656 117.632812 221.167969 C 119.582031 222.683594 120.332031 225.25 120.355469 227.636719 C 120.367188 234.234375 120.359375 240.824219 120.359375 247.421875 C 117.84375 247.417969 115.332031 247.417969 112.824219 247.421875 C 112.796875 241.527344 112.847656 235.628906 112.796875 229.734375 C 112.683594 228.097656 112.636719 226.105469 111.214844 225.007812 C 109.527344 223.960938 107.296875 224.507812 105.796875 225.65625 C 103.390625 227.511719 101.675781 230.476562 101.761719 233.570312 C 101.773438 238.183594 101.765625 242.804688 101.765625 247.421875 C 99.253906 247.417969 96.742188 247.417969 94.230469 247.421875 C 94.222656 240.839844 94.226562 234.25 94.230469 227.664062 C 94.203125 226.523438 94.183594 225.160156 93.230469 224.371094 C 92.050781 223.488281 90.492188 223.65625 89.113281 223.503906 C 89.113281 222.796875 89.113281 222.097656 89.117188 221.398438 Z M 89.117188 221.398438 "/>
<path style=" stroke:none;fill-rule:nonzero;fill:rgb(14.509804%,14.509804%,14.509804%);fill-opacity:1;" d="M 136.265625 219.875 C 140.144531 219.109375 144.136719 219.640625 147.933594 220.582031 C 147.9375 222.457031 147.933594 224.332031 147.933594 226.210938 C 145.253906 224.539062 142.289062 222.820312 139.003906 223.117188 C 137.753906 223.230469 136.179688 223.710938 135.875 225.117188 C 135.585938 226.417969 136.507812 227.542969 137.503906 228.238281 C 140.808594 230.53125 144.953125 231.539062 147.789062 234.511719 C 150.457031 237.160156 150.609375 241.9375 148.011719 244.683594 C 146.355469 246.480469 143.949219 247.339844 141.597656 247.746094 C 137.398438 248.390625 133.101562 247.929688 129 246.917969 C 128.996094 244.972656 129 243.03125 128.996094 241.082031 C 131.976562 243.007812 135.386719 244.816406 139.054688 244.429688 C 140.597656 244.304688 142.46875 243.671875 142.914062 242.003906 C 143.34375 240.605469 142.386719 239.300781 141.304688 238.535156 C 137.886719 236.074219 133.449219 235.113281 130.5625 231.898438 C 128.324219 229.453125 128.460938 225.390625 130.5625 222.90625 C 131.996094 221.214844 134.132812 220.300781 136.265625 219.875 Z M 136.265625 219.875 "/>
<path style=" stroke:none;fill-rule:nonzero;fill:rgb(14.509804%,14.509804%,14.509804%);fill-opacity:1;" d="M 153.710938 221.398438 C 157.910156 220.738281 162.105469 220.046875 166.308594 219.421875 C 166.3125 220.710938 166.3125 222 166.3125 223.289062 C 168.066406 221.5 170.257812 219.988281 172.78125 219.613281 C 176.515625 219.132812 180.675781 220.328125 183.019531 223.417969 C 185.511719 226.640625 186.003906 230.921875 185.808594 234.871094 C 185.632812 238.496094 184.773438 242.363281 182.152344 245.03125 C 179.421875 247.796875 175.207031 248.425781 171.515625 247.851562 C 169.449219 247.558594 167.574219 246.464844 166.199219 244.914062 C 166.207031 249.574219 166.203125 254.234375 166.203125 258.898438 C 163.691406 258.898438 161.175781 258.902344 158.660156 258.894531 C 158.671875 248.339844 158.664062 237.785156 158.664062 227.230469 C 158.644531 226.1875 158.550781 224.9375 157.628906 224.277344 C 156.480469 223.503906 155.027344 223.636719 153.714844 223.507812 C 153.710938 222.800781 153.710938 222.097656 153.710938 221.398438 M 170.011719 224.054688 C 168.585938 224.6875 167.632812 226.058594 167.113281 227.488281 C 166.140625 230.109375 166.179688 232.945312 166.207031 235.703125 C 166.257812 237.765625 166.496094 239.949219 167.675781 241.710938 C 169.386719 244.40625 173.941406 244.75 175.8125 242.058594 C 177.347656 239.84375 177.585938 237.03125 177.679688 234.414062 C 177.703125 231.46875 177.746094 228.257812 176.078125 225.695312 C 174.816406 223.734375 172.082031 223.175781 170.011719 224.054688 Z M 170.011719 224.054688 "/>
<path style=" stroke:none;fill-rule:nonzero;fill:rgb(14.509804%,14.509804%,14.509804%);fill-opacity:1;" d="M 191.0625 221.386719 C 195.207031 220.746094 199.34375 220.050781 203.492188 219.417969 C 203.503906 228.753906 203.492188 238.089844 203.496094 247.417969 C 200.984375 247.40625 198.464844 247.457031 195.949219 247.394531 C 195.988281 240.8125 195.957031 234.234375 195.96875 227.652344 C 195.925781 226.542969 195.921875 225.25 195.085938 224.410156 C 193.980469 223.488281 192.441406 223.621094 191.101562 223.535156 C 191.058594 222.816406 191.046875 222.101562 191.0625 221.386719 Z M 191.0625 221.386719 "/>
<path style=" stroke:none;fill-rule:nonzero;fill:rgb(14.509804%,14.509804%,14.509804%);fill-opacity:1;" d="M 210.59375 221.398438 C 214.792969 220.742188 218.992188 220.054688 223.195312 219.421875 C 223.1875 221.25 223.21875 223.078125 223.171875 224.910156 C 224.167969 223.011719 225.511719 221.152344 227.507812 220.222656 C 229.765625 219.105469 232.371094 219.550781 234.765625 219.867188 C 234.769531 222.054688 234.761719 224.238281 234.769531 226.425781 C 232.441406 225.621094 229.859375 225.160156 227.503906 226.136719 C 224.636719 227.125 223.140625 230.265625 223.195312 233.152344 C 223.199219 237.90625 223.191406 242.65625 223.199219 247.410156 C 220.6875 247.429688 218.175781 247.414062 215.667969 247.417969 C 215.667969 240.835938 215.667969 234.25 215.667969 227.664062 C 215.632812 226.5 215.605469 225.101562 214.613281 224.304688 C 213.453125 223.496094 211.953125 223.632812 210.613281 223.519531 C 210.597656 222.808594 210.59375 222.101562 210.59375 221.398438 Z M 210.59375 221.398438 "/>
<path style=" stroke:none;fill-rule:nonzero;fill:rgb(14.509804%,14.509804%,14.509804%);fill-opacity:1;" d="M 242.945312 221.675781 C 246.199219 219.644531 250.191406 219.339844 253.933594 219.589844 C 256.957031 219.824219 260.171875 220.832031 262.125 223.300781 C 263.941406 225.558594 264.386719 228.570312 264.351562 231.394531 C 258.257812 231.398438 252.164062 231.390625 246.070312 231.398438 C 246.234375 235.472656 247.679688 239.898438 251.226562 242.242188 C 254.945312 244.644531 259.765625 244.128906 263.761719 242.746094 C 263.761719 243.953125 263.761719 245.164062 263.761719 246.375 C 258.800781 248.070312 253.324219 248.660156 248.214844 247.28125 C 244.84375 246.382812 241.742188 244.269531 239.976562 241.222656 C 237.824219 237.519531 237.515625 232.992188 238.292969 228.855469 C 238.835938 225.976562 240.429688 223.234375 242.945312 221.675781 M 249.898438 222.796875 C 247.613281 223.441406 246.339844 225.796875 246.074219 228.027344 C 249.660156 228.042969 253.253906 228.027344 256.84375 228.035156 C 256.679688 226.527344 256.386719 224.890625 255.242188 223.796875 C 253.851562 222.441406 251.679688 222.339844 249.898438 222.796875 Z M 249.898438 222.796875 "/>
<path style=" stroke:none;fill-rule:nonzero;fill:rgb(14.509804%,14.509804%,14.509804%);fill-opacity:1;" d="M 353.460938 221.445312 C 356.972656 219.460938 361.207031 219.265625 365.136719 219.710938 C 368.234375 220.082031 371.433594 221.535156 373.015625 224.359375 C 374.234375 226.476562 374.546875 228.980469 374.472656 231.394531 C 368.386719 231.398438 362.308594 231.390625 356.222656 231.398438 C 356.386719 235.5 357.851562 239.953125 361.445312 242.289062 C 365.175781 244.632812 369.972656 244.128906 373.957031 242.730469 C 373.949219 243.9375 373.949219 245.144531 373.953125 246.359375 C 369.253906 247.976562 364.113281 248.582031 359.222656 247.5 C 355.753906 246.730469 352.429688 244.808594 350.472656 241.777344 C 348.058594 238.128906 347.691406 233.5 348.355469 229.277344 C 348.863281 226.109375 350.609375 223.046875 353.460938 221.445312 M 359.292969 223.109375 C 357.433594 224.023438 356.53125 226.0625 356.21875 228.015625 C 359.800781 228.054688 363.382812 228.027344 366.96875 228.03125 C 366.863281 226.277344 366.359375 224.300781 364.777344 223.3125 C 363.160156 222.316406 360.992188 222.3125 359.292969 223.109375 Z M 359.292969 223.109375 "/>
<path style=" stroke:none;fill-rule:nonzero;fill:rgb(14.509804%,14.509804%,14.509804%);fill-opacity:1;" d="M 450.058594 221.804688 C 453.125 219.773438 456.945312 219.394531 460.535156 219.542969 C 463.636719 219.695312 466.980469 220.527344 469.128906 222.933594 C 471.207031 225.199219 471.742188 228.421875 471.65625 231.394531 C 465.570312 231.394531 459.480469 231.394531 453.390625 231.398438 C 453.507812 235.417969 454.925781 239.757812 458.355469 242.144531 C 462.078125 244.6875 467.03125 244.191406 471.074219 242.730469 C 471.066406 243.957031 471.070312 245.179688 471.066406 246.410156 C 466.230469 248.035156 460.933594 248.617188 455.941406 247.390625 C 452.558594 246.578125 449.375 244.582031 447.511719 241.597656 C 445.21875 237.960938 444.855469 233.429688 445.53125 229.273438 C 446.011719 226.328125 447.527344 223.46875 450.058594 221.804688 M 455.023438 224.191406 C 454.0625 225.25 453.617188 226.640625 453.371094 228.019531 C 456.960938 228.046875 460.554688 228.03125 464.148438 228.03125 C 464.027344 226.171875 463.421875 224.082031 461.664062 223.148438 C 459.539062 222.109375 456.640625 222.355469 455.023438 224.191406 Z M 455.023438 224.191406 "/>
<path style=" stroke:none;fill-rule:nonzero;fill:rgb(14.509804%,14.509804%,14.509804%);fill-opacity:1;" d="M 472.367188 220.15625 C 476.226562 220.175781 480.082031 220.121094 483.9375 220.183594 C 486.015625 223 488.152344 225.761719 490.269531 228.546875 C 492.6875 225.742188 495.136719 222.964844 497.515625 220.125 C 500.1875 220.078125 502.863281 220.109375 505.539062 220.109375 C 502.957031 223.085938 500.390625 226.082031 497.8125 229.066406 C 495.4375 229.070312 493.0625 229.0625 490.691406 229.070312 C 495.367188 235.214844 500.0625 241.335938 504.734375 247.480469 C 501.753906 247.460938 498.777344 247.480469 495.800781 247.46875 C 493.347656 244.195312 490.894531 240.914062 488.441406 237.644531 C 487.300781 238.96875 486.171875 240.296875 485.027344 241.617188 C 482.367188 241.613281 479.714844 241.621094 477.058594 241.609375 C 479.609375 238.640625 482.175781 235.691406 484.722656 232.726562 C 482.542969 229.929688 480.585938 226.945312 478.21875 224.300781 C 476.738281 222.640625 474.410156 222.488281 472.34375 222.304688 C 472.351562 221.585938 472.359375 220.871094 472.367188 220.15625 Z M 472.367188 220.15625 "/>
<path style=" stroke:none;fill-rule:nonzero;fill:rgb(87.058824%,0%,19.215686%);fill-opacity:1;" d="M 514.339844 200.613281 C 517.019531 200.5 519.707031 200.582031 522.386719 200.566406 C 519.210938 204.296875 515.96875 207.96875 512.796875 211.699219 C 510.128906 211.746094 507.460938 211.71875 504.792969 211.71875 C 507.945312 207.988281 511.195312 204.347656 514.339844 200.613281 Z M 514.339844 200.613281 "/>
<path style=" stroke:none;fill-rule:nonzero;fill:rgb(87.058824%,0%,19.215686%);fill-opacity:1;" d="M 0 307.097656 C 199.722656 307.101562 399.445312 307.097656 599.167969 307.101562 L 599.167969 369.832031 L 0 369.832031 Z M 0 307.097656 "/>
</g>
</svg>
